<svg width="321" height="328" viewBox="0 0 321 328" fill="none" xmlns="http://www.w3.org/2000/svg">
<g filter="url(#filter0_di_24_6233)">
<path d="M167.386 30.1476C187.923 -13.1563 165.89 62.0035 178.366 78.6951C185.651 88.4432 191.768 93.8863 185.065 103.71C180.165 110.891 192.469 119.768 191.176 128.994C188.896 145.263 158.185 150.202 158.185 150.202C149.306 100.683 146.85 73.4515 167.386 30.1476Z" fill="url(#paint0_linear_24_6233)" shape-rendering="crispEdges"/>
</g>
<g filter="url(#filter1_di_24_6233)">
<path d="M34.5561 165.599C-9.52494 184.409 66.4463 165.361 82.6323 178.486C92.085 186.151 97.2823 192.478 107.363 186.168C114.732 181.556 123.117 194.201 132.387 193.273C148.732 191.637 154.88 161.145 154.88 161.145C105.751 150.318 78.6372 146.788 34.5561 165.599Z" fill="url(#paint1_linear_24_6233)" shape-rendering="crispEdges"/>
</g>
<g filter="url(#filter2_di_24_6233)">
<path d="M286.758 156.928C330.839 138.118 254.868 157.166 238.682 144.041C229.229 136.376 224.032 130.049 213.951 136.359C206.582 140.971 198.197 128.326 188.927 129.254C172.582 130.89 166.434 161.382 166.434 161.382C215.563 172.209 242.677 175.739 286.758 156.928Z" fill="url(#paint2_linear_24_6233)" shape-rendering="crispEdges"/>
</g>
<g filter="url(#filter3_di_24_6233)">
<path d="M156.524 289.883C135.988 333.187 158.021 258.027 145.545 241.336C138.259 231.588 132.143 226.144 138.846 216.321C143.746 209.14 131.441 200.262 132.734 191.036C135.014 174.768 165.726 169.829 165.726 169.829C174.605 219.348 177.061 246.579 156.524 289.883Z" fill="url(#paint3_linear_24_6233)" shape-rendering="crispEdges"/>
</g>
<g filter="url(#filter4_di_24_6233)">
<path d="M188.366 40.9507C215.707 2.61364 182.185 71.1759 192.518 88.9839C198.553 99.3839 204.019 105.495 195.724 113.888C189.661 120.024 200.959 130.338 198.289 138.964C193.581 154.174 161.425 154.33 161.425 154.33C159.565 105.681 161.025 79.2878 188.366 40.9507Z" fill="url(#paint4_linear_24_6233)" shape-rendering="crispEdges"/>
</g>
<g filter="url(#filter5_di_24_6233)">
<path d="M44.5078 186.974C5.12098 212.779 74.9535 181.991 92.3395 193.019C102.493 199.46 108.384 205.163 117.098 197.206C123.468 191.39 133.328 203.087 142.052 200.759C157.437 196.655 158.862 164.531 158.862 164.531C110.324 160.751 83.8946 161.168 44.5078 186.974Z" fill="url(#paint5_linear_24_6233)" shape-rendering="crispEdges"/>
</g>
<g filter="url(#filter6_di_24_6233)">
<path d="M276.792 135.538C316.178 109.733 246.346 140.521 228.96 129.493C218.806 123.052 212.915 117.349 204.201 125.305C197.831 131.122 187.972 119.425 179.247 121.752C163.863 125.856 162.437 157.981 162.437 157.981C210.975 161.761 237.405 161.344 276.792 135.538Z" fill="url(#paint6_linear_24_6233)" shape-rendering="crispEdges"/>
</g>
<g filter="url(#filter7_di_24_6233)">
<path d="M135.53 279.065C108.189 317.402 141.711 248.84 131.377 231.032C125.343 220.632 119.877 214.52 128.171 206.128C134.235 199.992 122.936 189.678 125.606 181.052C130.315 165.842 162.47 165.686 162.47 165.686C164.331 214.335 162.87 240.728 135.53 279.065Z" fill="url(#paint7_linear_24_6233)" shape-rendering="crispEdges"/>
</g>
<path fill-rule="evenodd" clip-rule="evenodd" d="M127.741 74.6755L127.741 74.6754C123.731 69.9132 117.273 62.2432 121.154 80.4598C125.426 100.516 129.07 111.089 135.748 126.811C133.967 126.954 132.222 127.69 130.834 129.024C129.528 130.28 128.739 131.871 128.473 133.532C113.131 126.295 102.714 122.249 82.9239 117.209C64.8747 112.612 72.2837 119.368 76.8838 123.563C77.7472 124.35 78.5117 125.047 78.9903 125.562C79.8825 126.522 79.8505 126.403 79.694 125.819C79.3158 124.409 78.2104 120.289 87.6683 122.144C98.0225 124.175 119.345 130.847 128.44 133.755C128.132 136.09 128.851 138.538 130.61 140.368L138.819 148.909C139.985 150.122 141.441 150.889 142.973 151.205C144.306 151.48 145.478 152.699 145.7 154.042C145.956 155.585 146.665 157.07 147.831 158.283L173.612 185.104C176.683 188.298 181.762 188.399 184.956 185.328C188.151 182.257 188.251 177.178 185.18 173.984L159.399 147.163C158.233 145.95 156.777 145.183 155.245 144.867C153.912 144.591 152.741 143.373 152.518 142.03C152.262 140.487 151.554 139.002 150.387 137.789L142.178 129.248C140.492 127.494 138.199 126.673 135.946 126.798C133.43 117.713 127.53 95.8995 125.898 85.3955C124.418 75.8717 128.491 77.1389 129.885 77.5725C130.462 77.7519 130.58 77.7886 129.656 76.8592C129.16 76.3607 128.494 75.5693 127.741 74.6755Z" fill="url(#paint8_linear_24_6233)"/>
<defs>
<filter id="filter0_di_24_6233" x="131.606" y="0.883301" width="79.6655" height="173.318" filterUnits="userSpaceOnUse" color-interpolation-filters="sRGB">
<feFlood flood-opacity="0" result="BackgroundImageFix"/>
<feColorMatrix in="SourceAlpha" type="matrix" values="0 0 0 0 0 0 0 0 0 0 0 0 0 0 0 0 0 0 127 0" result="hardAlpha"/>
<feOffset dy="4"/>
<feGaussianBlur stdDeviation="10"/>
<feComposite in2="hardAlpha" operator="out"/>
<feColorMatrix type="matrix" values="0 0 0 0 0.992157 0 0 0 0 0.772549 0 0 0 0 0.847059 0 0 0 1 0"/>
<feBlend mode="normal" in2="BackgroundImageFix" result="effect1_dropShadow_24_6233"/>
<feBlend mode="normal" in="SourceGraphic" in2="effect1_dropShadow_24_6233" result="shape"/>
<feColorMatrix in="SourceAlpha" type="matrix" values="0 0 0 0 0 0 0 0 0 0 0 0 0 0 0 0 0 0 127 0" result="hardAlpha"/>
<feOffset dx="1" dy="-6"/>
<feGaussianBlur stdDeviation="8.65"/>
<feComposite in2="hardAlpha" operator="arithmetic" k2="-1" k3="1"/>
<feColorMatrix type="matrix" values="0 0 0 0 0.996078 0 0 0 0 0.890196 0 0 0 0 0.854902 0 0 0 1 0"/>
<feBlend mode="normal" in2="shape" result="effect2_innerShadow_24_6233"/>
</filter>
<filter id="filter1_di_24_6233" x="0.979492" y="136.255" width="173.9" height="81.0671" filterUnits="userSpaceOnUse" color-interpolation-filters="sRGB">
<feFlood flood-opacity="0" result="BackgroundImageFix"/>
<feColorMatrix in="SourceAlpha" type="matrix" values="0 0 0 0 0 0 0 0 0 0 0 0 0 0 0 0 0 0 127 0" result="hardAlpha"/>
<feOffset dy="4"/>
<feGaussianBlur stdDeviation="10"/>
<feComposite in2="hardAlpha" operator="out"/>
<feColorMatrix type="matrix" values="0 0 0 0 0.992157 0 0 0 0 0.772549 0 0 0 0 0.847059 0 0 0 1 0"/>
<feBlend mode="normal" in2="BackgroundImageFix" result="effect1_dropShadow_24_6233"/>
<feBlend mode="normal" in="SourceGraphic" in2="effect1_dropShadow_24_6233" result="shape"/>
<feColorMatrix in="SourceAlpha" type="matrix" values="0 0 0 0 0 0 0 0 0 0 0 0 0 0 0 0 0 0 127 0" result="hardAlpha"/>
<feOffset dx="1" dy="-6"/>
<feGaussianBlur stdDeviation="8.65"/>
<feComposite in2="hardAlpha" operator="arithmetic" k2="-1" k3="1"/>
<feColorMatrix type="matrix" values="0 0 0 0 0.996078 0 0 0 0 0.890196 0 0 0 0 0.854902 0 0 0 1 0"/>
<feBlend mode="normal" in2="shape" result="effect2_innerShadow_24_6233"/>
</filter>
<filter id="filter2_di_24_6233" x="146.434" y="113.205" width="173.9" height="81.0671" filterUnits="userSpaceOnUse" color-interpolation-filters="sRGB">
<feFlood flood-opacity="0" result="BackgroundImageFix"/>
<feColorMatrix in="SourceAlpha" type="matrix" values="0 0 0 0 0 0 0 0 0 0 0 0 0 0 0 0 0 0 127 0" result="hardAlpha"/>
<feOffset dy="4"/>
<feGaussianBlur stdDeviation="10"/>
<feComposite in2="hardAlpha" operator="out"/>
<feColorMatrix type="matrix" values="0 0 0 0 0.992157 0 0 0 0 0.772549 0 0 0 0 0.847059 0 0 0 1 0"/>
<feBlend mode="normal" in2="BackgroundImageFix" result="effect1_dropShadow_24_6233"/>
<feBlend mode="normal" in="SourceGraphic" in2="effect1_dropShadow_24_6233" result="shape"/>
<feColorMatrix in="SourceAlpha" type="matrix" values="0 0 0 0 0 0 0 0 0 0 0 0 0 0 0 0 0 0 127 0" result="hardAlpha"/>
<feOffset dx="1" dy="-6"/>
<feGaussianBlur stdDeviation="8.65"/>
<feComposite in2="hardAlpha" operator="arithmetic" k2="-1" k3="1"/>
<feColorMatrix type="matrix" values="0 0 0 0 0.996078 0 0 0 0 0.890196 0 0 0 0 0.854902 0 0 0 1 0"/>
<feBlend mode="normal" in2="shape" result="effect2_innerShadow_24_6233"/>
</filter>
<filter id="filter3_di_24_6233" x="112.639" y="153.829" width="79.6655" height="173.318" filterUnits="userSpaceOnUse" color-interpolation-filters="sRGB">
<feFlood flood-opacity="0" result="BackgroundImageFix"/>
<feColorMatrix in="SourceAlpha" type="matrix" values="0 0 0 0 0 0 0 0 0 0 0 0 0 0 0 0 0 0 127 0" result="hardAlpha"/>
<feOffset dy="4"/>
<feGaussianBlur stdDeviation="10"/>
<feComposite in2="hardAlpha" operator="out"/>
<feColorMatrix type="matrix" values="0 0 0 0 0.992157 0 0 0 0 0.772549 0 0 0 0 0.847059 0 0 0 1 0"/>
<feBlend mode="normal" in2="BackgroundImageFix" result="effect1_dropShadow_24_6233"/>
<feBlend mode="normal" in="SourceGraphic" in2="effect1_dropShadow_24_6233" result="shape"/>
<feColorMatrix in="SourceAlpha" type="matrix" values="0 0 0 0 0 0 0 0 0 0 0 0 0 0 0 0 0 0 127 0" result="hardAlpha"/>
<feOffset dx="1" dy="-6"/>
<feGaussianBlur stdDeviation="8.65"/>
<feComposite in2="hardAlpha" operator="arithmetic" k2="-1" k3="1"/>
<feColorMatrix type="matrix" values="0 0 0 0 0.996078 0 0 0 0 0.890196 0 0 0 0 0.854902 0 0 0 1 0"/>
<feBlend mode="normal" in2="shape" result="effect2_innerShadow_24_6233"/>
</filter>
<filter id="filter4_di_24_6233" x="140.875" y="13.4795" width="79.0737" height="164.85" filterUnits="userSpaceOnUse" color-interpolation-filters="sRGB">
<feFlood flood-opacity="0" result="BackgroundImageFix"/>
<feColorMatrix in="SourceAlpha" type="matrix" values="0 0 0 0 0 0 0 0 0 0 0 0 0 0 0 0 0 0 127 0" result="hardAlpha"/>
<feOffset dy="4"/>
<feGaussianBlur stdDeviation="10"/>
<feComposite in2="hardAlpha" operator="out"/>
<feColorMatrix type="matrix" values="0 0 0 0 0.992157 0 0 0 0 0.772549 0 0 0 0 0.847059 0 0 0 1 0"/>
<feBlend mode="normal" in2="BackgroundImageFix" result="effect1_dropShadow_24_6233"/>
<feBlend mode="normal" in="SourceGraphic" in2="effect1_dropShadow_24_6233" result="shape"/>
<feColorMatrix in="SourceAlpha" type="matrix" values="0 0 0 0 0 0 0 0 0 0 0 0 0 0 0 0 0 0 127 0" result="hardAlpha"/>
<feOffset dx="1" dy="-6"/>
<feGaussianBlur stdDeviation="8.65"/>
<feComposite in2="hardAlpha" operator="arithmetic" k2="-1" k3="1"/>
<feColorMatrix type="matrix" values="0 0 0 0 0.996078 0 0 0 0 0.890196 0 0 0 0 0.854902 0 0 0 1 0"/>
<feBlend mode="normal" in2="shape" result="effect2_innerShadow_24_6233"/>
</filter>
<filter id="filter5_di_24_6233" x="12.6426" y="146.804" width="166.22" height="78.2908" filterUnits="userSpaceOnUse" color-interpolation-filters="sRGB">
<feFlood flood-opacity="0" result="BackgroundImageFix"/>
<feColorMatrix in="SourceAlpha" type="matrix" values="0 0 0 0 0 0 0 0 0 0 0 0 0 0 0 0 0 0 127 0" result="hardAlpha"/>
<feOffset dy="4"/>
<feGaussianBlur stdDeviation="10"/>
<feComposite in2="hardAlpha" operator="out"/>
<feColorMatrix type="matrix" values="0 0 0 0 0.992157 0 0 0 0 0.772549 0 0 0 0 0.847059 0 0 0 1 0"/>
<feBlend mode="normal" in2="BackgroundImageFix" result="effect1_dropShadow_24_6233"/>
<feBlend mode="normal" in="SourceGraphic" in2="effect1_dropShadow_24_6233" result="shape"/>
<feColorMatrix in="SourceAlpha" type="matrix" values="0 0 0 0 0 0 0 0 0 0 0 0 0 0 0 0 0 0 127 0" result="hardAlpha"/>
<feOffset dx="1" dy="-6"/>
<feGaussianBlur stdDeviation="8.65"/>
<feComposite in2="hardAlpha" operator="arithmetic" k2="-1" k3="1"/>
<feColorMatrix type="matrix" values="0 0 0 0 0.996078 0 0 0 0 0.890196 0 0 0 0 0.854902 0 0 0 1 0"/>
<feBlend mode="normal" in2="shape" result="effect2_innerShadow_24_6233"/>
</filter>
<filter id="filter6_di_24_6233" x="142.437" y="105.417" width="166.22" height="78.2908" filterUnits="userSpaceOnUse" color-interpolation-filters="sRGB">
<feFlood flood-opacity="0" result="BackgroundImageFix"/>
<feColorMatrix in="SourceAlpha" type="matrix" values="0 0 0 0 0 0 0 0 0 0 0 0 0 0 0 0 0 0 127 0" result="hardAlpha"/>
<feOffset dy="4"/>
<feGaussianBlur stdDeviation="10"/>
<feComposite in2="hardAlpha" operator="out"/>
<feColorMatrix type="matrix" values="0 0 0 0 0.992157 0 0 0 0 0.772549 0 0 0 0 0.847059 0 0 0 1 0"/>
<feBlend mode="normal" in2="BackgroundImageFix" result="effect1_dropShadow_24_6233"/>
<feBlend mode="normal" in="SourceGraphic" in2="effect1_dropShadow_24_6233" result="shape"/>
<feColorMatrix in="SourceAlpha" type="matrix" values="0 0 0 0 0 0 0 0 0 0 0 0 0 0 0 0 0 0 127 0" result="hardAlpha"/>
<feOffset dx="1" dy="-6"/>
<feGaussianBlur stdDeviation="8.65"/>
<feComposite in2="hardAlpha" operator="arithmetic" k2="-1" k3="1"/>
<feColorMatrix type="matrix" values="0 0 0 0 0.996078 0 0 0 0 0.890196 0 0 0 0 0.854902 0 0 0 1 0"/>
<feBlend mode="normal" in2="shape" result="effect2_innerShadow_24_6233"/>
</filter>
<filter id="filter7_di_24_6233" x="103.947" y="149.686" width="79.0737" height="164.85" filterUnits="userSpaceOnUse" color-interpolation-filters="sRGB">
<feFlood flood-opacity="0" result="BackgroundImageFix"/>
<feColorMatrix in="SourceAlpha" type="matrix" values="0 0 0 0 0 0 0 0 0 0 0 0 0 0 0 0 0 0 127 0" result="hardAlpha"/>
<feOffset dy="4"/>
<feGaussianBlur stdDeviation="10"/>
<feComposite in2="hardAlpha" operator="out"/>
<feColorMatrix type="matrix" values="0 0 0 0 0.992157 0 0 0 0 0.772549 0 0 0 0 0.847059 0 0 0 1 0"/>
<feBlend mode="normal" in2="BackgroundImageFix" result="effect1_dropShadow_24_6233"/>
<feBlend mode="normal" in="SourceGraphic" in2="effect1_dropShadow_24_6233" result="shape"/>
<feColorMatrix in="SourceAlpha" type="matrix" values="0 0 0 0 0 0 0 0 0 0 0 0 0 0 0 0 0 0 127 0" result="hardAlpha"/>
<feOffset dx="1" dy="-6"/>
<feGaussianBlur stdDeviation="8.65"/>
<feComposite in2="hardAlpha" operator="arithmetic" k2="-1" k3="1"/>
<feColorMatrix type="matrix" values="0 0 0 0 0.996078 0 0 0 0 0.890196 0 0 0 0 0.854902 0 0 0 1 0"/>
<feBlend mode="normal" in2="shape" result="effect2_innerShadow_24_6233"/>
</filter>
<linearGradient id="paint0_linear_24_6233" x1="138.878" y1="56.6629" x2="205.353" y2="117.133" gradientUnits="userSpaceOnUse">
<stop stop-color="white" stop-opacity="0"/>
<stop offset="1" stop-color="#FDC5D8" stop-opacity="0.5"/>
</linearGradient>
<linearGradient id="paint1_linear_24_6233" x1="62.1766" y1="138.16" x2="119.975" y2="206.97" gradientUnits="userSpaceOnUse">
<stop stop-color="white" stop-opacity="0"/>
<stop offset="1" stop-color="#FDC5D8" stop-opacity="0.5"/>
</linearGradient>
<linearGradient id="paint2_linear_24_6233" x1="259.137" y1="184.367" x2="201.339" y2="115.557" gradientUnits="userSpaceOnUse">
<stop stop-color="white" stop-opacity="0"/>
<stop offset="1" stop-color="#FDC5D8" stop-opacity="0.5"/>
</linearGradient>
<linearGradient id="paint3_linear_24_6233" x1="185.032" y1="263.368" x2="118.558" y2="202.898" gradientUnits="userSpaceOnUse">
<stop stop-color="white" stop-opacity="0"/>
<stop offset="1" stop-color="#FDC5D8" stop-opacity="0.5"/>
</linearGradient>
<linearGradient id="paint4_linear_24_6233" x1="155.316" y1="62.0566" x2="209.688" y2="133.423" gradientUnits="userSpaceOnUse">
<stop stop-color="white" stop-opacity="0"/>
<stop offset="1" stop-color="#FDC5D8" stop-opacity="0.5"/>
</linearGradient>
<linearGradient id="paint5_linear_24_6233" x1="66.9023" y1="154.783" x2="136.066" y2="211.931" gradientUnits="userSpaceOnUse">
<stop stop-color="white" stop-opacity="0"/>
<stop offset="1" stop-color="#FDC5D8" stop-opacity="0.5"/>
</linearGradient>
<linearGradient id="paint6_linear_24_6233" x1="254.397" y1="167.729" x2="185.233" y2="110.581" gradientUnits="userSpaceOnUse">
<stop stop-color="white" stop-opacity="0"/>
<stop offset="1" stop-color="#FDC5D8" stop-opacity="0.5"/>
</linearGradient>
<linearGradient id="paint7_linear_24_6233" x1="168.579" y1="257.959" x2="114.207" y2="186.593" gradientUnits="userSpaceOnUse">
<stop stop-color="white" stop-opacity="0"/>
<stop offset="1" stop-color="#FDC5D8" stop-opacity="0.5"/>
</linearGradient>
<linearGradient id="paint8_linear_24_6233" x1="96.1581" y1="92.7166" x2="185.073" y2="185.215" gradientUnits="userSpaceOnUse">
<stop stop-color="white"/>
<stop offset="1" stop-color="#FDC5D8"/>
</linearGradient>
</defs>
</svg>
